<svg width="24" height="24" viewBox="0 0 24 24" fill="none" xmlns="http://www.w3.org/2000/svg">
<path d="M12.0022 3C10.894 3 9.94978 3.72321 9.59152 4.71429H3.4308V6.42857H4.63616L4.39509 6.85714L0.966518 12.8571L0.859375 13.0714V13.2857C0.859375 15.6429 2.78795 17.5714 5.14509 17.5714C7.50223 17.5714 9.4308 15.6429 9.4308 13.2857V13.0714L9.32366 12.8571L5.89509 6.85714L5.65402 6.42857H9.59152C9.85268 7.15179 10.4219 7.72098 11.1451 7.98214V19.2857H7.71652V21H16.2879V19.2857H12.8594V7.98214C13.5792 7.72098 14.1518 7.14844 14.4129 6.42857H18.3504L18.1094 6.85714L14.6808 12.8571L14.5737 13.0714V13.2857C14.5737 15.6429 16.5022 17.5714 18.8594 17.5714C21.2165 17.5714 23.1451 15.6429 23.1451 13.2857V13.0714L23.0379 12.8571L19.6094 6.85714L19.3683 6.42857H20.5737V4.71429H14.4129C14.0547 3.72321 13.1105 3 12.0022 3ZM12.0022 4.71429C12.4844 4.71429 12.8594 5.08929 12.8594 5.57143C12.8594 6.05357 12.4844 6.42857 12.0022 6.42857C11.5201 6.42857 11.1451 6.05357 11.1451 5.57143C11.1451 5.08929 11.5201 4.71429 12.0022 4.71429ZM5.14509 9.02679L7.10045 12.4286H3.18973L5.14509 9.02679ZM18.8594 9.02679L20.8147 12.4286H16.904L18.8594 9.02679ZM2.78795 14.1429H7.50223C7.15737 15.1373 6.26339 15.8571 5.14509 15.8571C4.02679 15.8571 3.13281 15.1373 2.78795 14.1429ZM16.5022 14.1429H21.2165C20.8717 15.1373 19.9777 15.8571 18.8594 15.8571C17.7411 15.8571 16.8471 15.1373 16.5022 14.1429Z" fill="#0B64FE"/>
</svg>
