<svg width="24" height="24" viewBox="0 0 24 24" fill="none" xmlns="http://www.w3.org/2000/svg">
<path d="M12.0022 2.14258C10.4051 2.14258 9.08929 3.23744 8.70759 4.71401H0.859375V21.8569H23.1451V4.71401H15.2969C14.9152 3.23744 13.5993 2.14258 12.0022 2.14258ZM12.0022 3.85686C12.6953 3.85686 13.2277 4.18834 13.5022 4.71401H10.5022C10.7768 4.18834 11.3092 3.85686 12.0022 3.85686ZM2.57366 6.42829H21.4308V14.1426H2.57366V6.42829ZM12.0022 11.5711C11.5301 11.5711 11.1451 11.9562 11.1451 12.4283C11.1451 12.9004 11.5301 13.2854 12.0022 13.2854C12.4743 13.2854 12.8594 12.9004 12.8594 12.4283C12.8594 11.9562 12.4743 11.5711 12.0022 11.5711ZM2.57366 15.8569H21.4308V20.1426H2.57366V15.8569Z" fill="#0B64FE"/>
</svg>
