<svg width="24" height="24" viewBox="0 0 24 24" fill="none" xmlns="http://www.w3.org/2000/svg">
<path d="M5.99888 2.14258V2.99972H2.57031V21.8569H21.4275V2.99972H17.9989V2.14258H16.2846V2.99972H7.71317V2.14258H5.99888ZM4.2846 4.71401H5.99888V5.57115H7.71317V4.71401H16.2846V5.57115H17.9989V4.71401H19.7132V6.42829H4.2846V4.71401ZM4.2846 8.14258H19.7132V20.1426H4.2846V8.14258ZM9.42746 9.85686V11.5711H11.1417V9.85686H9.42746ZM12.856 9.85686V11.5711H14.5703V9.85686H12.856ZM16.2846 9.85686V11.5711H17.9989V9.85686H16.2846ZM5.99888 13.2854V14.9997H7.71317V13.2854H5.99888ZM9.42746 13.2854V14.9997H11.1417V13.2854H9.42746ZM12.856 13.2854V14.9997H14.5703V13.2854H12.856ZM16.2846 13.2854V14.9997H17.9989V13.2854H16.2846ZM5.99888 16.714V18.4283H7.71317V16.714H5.99888ZM9.42746 16.714V18.4283H11.1417V16.714H9.42746ZM12.856 16.714V18.4283H14.5703V16.714H12.856Z" fill="#0B64FE"/>
</svg>
