<svg width="24" height="24" viewBox="0 0 24 24" fill="none" xmlns="http://www.w3.org/2000/svg">
<path d="M11.9978 0.857422C11.4621 0.857422 10.9297 1.03823 10.471 1.36635L9.05134 2.35742L7.41741 2.57171H7.39062L7.36384 2.59849C6.27232 2.84291 5.41183 3.7034 5.16741 4.79492L5.14062 4.82171V4.84849L4.92634 6.50921L3.93527 7.79492L3.90848 7.82171V7.84849C3.30915 8.80608 3.28237 10.0416 3.93527 10.9556L4.95312 12.3753L5.22098 13.8485L2.46205 18.0539L1.57812 19.3664H5.67634L6.66741 21.6699L7.28348 23.1431L8.16741 21.8039L10.8728 17.7324C11.5993 18.0304 12.4196 18.0572 13.1228 17.7324L15.8281 21.8039L16.7121 23.1431L17.3281 21.6699L18.3192 19.3664H22.4174L21.5335 18.0539L18.8549 13.9824L19.0692 12.3753L20.0603 10.9556L20.0871 10.9289V10.9021C20.6864 9.94448 20.7132 8.73577 20.0603 7.82171L19.0692 6.40206L18.7478 4.79492H18.7746C18.7712 4.77483 18.7511 4.76144 18.7478 4.74135C18.5938 3.6197 17.7065 2.70898 16.5781 2.57171H16.5513L14.9442 2.35742L13.5246 1.36635C13.0658 1.03823 12.5335 0.857422 11.9978 0.857422ZM11.9978 2.59849C12.1953 2.59849 12.3895 2.65876 12.5335 2.75921L14.0603 3.85742L14.2478 3.99135L14.4621 4.01814L16.3371 4.28599H16.3638C16.7489 4.32952 17.0167 4.59738 17.0603 4.98242V5.03599L17.4085 6.93778L17.4353 7.12528L17.5692 7.28599L18.6674 8.81278C18.8717 9.09738 18.8984 9.57952 18.6406 9.99135L17.4353 11.6789L17.4085 11.8931L17.1406 13.7681V13.7949C17.1239 13.9355 17.077 14.0661 17.0067 14.1699L16.9531 14.1967V14.2235C16.8292 14.3708 16.6585 14.4679 16.4442 14.4914H16.3906L14.4353 14.8396L14.221 14.8664L14.0603 15.0003L12.5335 16.0985C12.2489 16.3027 11.74 16.3295 11.3281 16.0717L9.93527 15.0003L9.77455 14.8664L9.53348 14.8396L7.65848 14.5717H7.6317C7.36719 14.5416 7.16295 14.4043 7.04241 14.1967C6.98884 14.103 6.94866 13.9925 6.93527 13.8753V13.8217L6.58705 11.8664L6.56027 11.6521L6.42634 11.4914L5.32812 9.96457C5.12388 9.67997 5.0971 9.17104 5.35491 8.75921L6.42634 7.36635L6.56027 7.20564L6.58705 6.96456L6.82812 5.16992C6.83147 5.15653 6.85156 5.15653 6.85491 5.14314C6.96205 4.72461 7.29353 4.39314 7.71205 4.28599C7.72545 4.28265 7.72545 4.26256 7.73884 4.25921L9.53348 4.01814L9.74777 3.99135L9.93527 3.85742L11.4621 2.75921C11.606 2.65876 11.8002 2.59849 11.9978 2.59849ZM17.9174 15.6431L19.2299 17.6521H17.1674L16.9531 18.1878L16.3638 19.5539L14.5424 16.7681L14.9442 16.4735L16.6317 16.1789V16.2056C16.6518 16.2023 16.6652 16.1822 16.6853 16.1789C17.1473 16.1152 17.5658 15.921 17.9174 15.6431ZM6.07812 15.6699C6.44308 15.998 6.90848 16.2257 7.41741 16.286C7.42746 16.286 7.43415 16.286 7.4442 16.286L9.07812 16.5003L9.45312 16.7949L7.6317 19.5539L7.04241 18.1878L6.82812 17.6521H4.76562L6.07812 15.6699Z" fill="#0B64FE"/>
</svg>
