<svg width="24" height="24" viewBox="0 0 24 24" fill="none" xmlns="http://www.w3.org/2000/svg">
<g clip-path="url(#clip0_328_1052)">
<path d="M11.2656 0.375L10.6496 0.964286L4.64955 6.99107L4.03348 7.58036L7.83705 11.3839L8.42634 10.7679L8.72098 10.4732L10.5156 12.2679L0.390625 22.3929L1.62277 23.625L11.7478 13.5L13.5156 15.2679L13.221 15.5625L12.6049 16.1518L16.4085 19.9554L16.9978 19.3393L23.6138 12.7232L22.9978 12.1339L20.4263 9.53571L19.8371 8.94643L19.221 9.53571L18.9799 9.77679L14.1853 5.00893L15.0424 4.15179L14.4263 3.5625L11.8549 0.964286L11.2656 0.375ZM11.2656 2.78571L12.6317 4.15179L7.83705 8.94643L6.47098 7.58036L11.2656 2.78571ZM13.0067 6.24107L17.7746 11.0089L14.721 14.0625L9.95312 9.29464L13.0067 6.24107ZM19.8371 11.3571L21.2031 12.7232L16.4085 17.5179L15.0424 16.1518L19.8371 11.3571Z" fill="#0B64FE"/>
</g>
<defs>
<clipPath id="clip0_328_1052">
<rect width="24" height="24" fill="white"/>
</clipPath>
</defs>
</svg>
