<svg width="100%" height="100%" viewBox="0 0 24 24" fill="none" xmlns="http://www.w3.org/2000/svg">
<path d="M12.0033 0.536133C7.75446 0.536133 4.28906 4.00153 4.28906 8.25042C4.28906 9.45578 4.7779 10.8386 5.44085 12.3486C6.1038 13.8587 6.95759 15.4625 7.82478 16.9558C9.55915 19.9457 11.3069 22.4468 11.3069 22.4468L12.0033 23.4647L12.6998 22.4468C12.6998 22.4468 14.4475 19.9457 16.1819 16.9558C17.0491 15.4625 17.9029 13.8587 18.5658 12.3486C19.2288 10.8386 19.7176 9.45578 19.7176 8.25042C19.7176 4.00153 16.2522 0.536133 12.0033 0.536133ZM12.0033 2.25042C15.3281 2.25042 18.0033 4.92564 18.0033 8.25042C18.0033 8.9368 17.635 10.2359 17.0123 11.6522C16.3895 13.0685 15.529 14.6388 14.6819 16.0986C13.3359 18.4223 12.4989 19.6511 12.0033 20.3843C11.5078 19.6511 10.6708 18.4223 9.32478 16.0986C8.47768 14.6388 7.61719 13.0685 6.99442 11.6522C6.37165 10.2359 6.00335 8.9368 6.00335 8.25042C6.00335 4.92564 8.67857 2.25042 12.0033 2.25042ZM12.0033 6.53613C11.0558 6.53613 10.2891 7.30287 10.2891 8.25042C10.2891 9.19796 11.0558 9.9647 12.0033 9.9647C12.9509 9.9647 13.7176 9.19796 13.7176 8.25042C13.7176 7.30287 12.9509 6.53613 12.0033 6.53613Z" fill="currentColor"/>
</svg>
