<svg width="24" height="24" viewBox="0 0 24 24" fill="none" xmlns="http://www.w3.org/2000/svg">
<path d="M2.57031 2.57129V21.4284H21.4275V2.57129H2.57031ZM4.2846 4.28557H19.7132V19.7141H4.2846V4.28557ZM8.57031 5.99986C7.16071 5.99986 5.99888 7.16169 5.99888 8.57129V9.42843C5.99888 10.838 7.16071 11.9999 8.57031 11.9999C9.97991 11.9999 11.1417 10.838 11.1417 9.42843V8.57129C11.1417 7.16169 9.97991 5.99986 8.57031 5.99986ZM15.0792 5.99986L6.85603 17.9999H8.91853L17.1417 5.99986H15.0792ZM8.57031 7.71415C9.0558 7.71415 9.42746 8.0858 9.42746 8.57129V9.42843C9.42746 9.91392 9.0558 10.2856 8.57031 10.2856C8.08482 10.2856 7.71317 9.91392 7.71317 9.42843V8.57129C7.71317 8.0858 8.08482 7.71415 8.57031 7.71415ZM15.4275 11.9999C14.0179 11.9999 12.856 13.1617 12.856 14.5713V15.4284C12.856 16.838 14.0179 17.9999 15.4275 17.9999C16.8371 17.9999 17.9989 16.838 17.9989 15.4284V14.5713C17.9989 13.1617 16.8371 11.9999 15.4275 11.9999ZM15.4275 13.7141C15.9129 13.7141 16.2846 14.0858 16.2846 14.5713V15.4284C16.2846 15.9139 15.9129 16.2856 15.4275 16.2856C14.942 16.2856 14.5703 15.9139 14.5703 15.4284V14.5713C14.5703 14.0858 14.942 13.7141 15.4275 13.7141Z" fill="#0B64FE"/>
</svg>
