<svg width="100%" height="100%" viewBox="0 0 24 24" fill="none" xmlns="http://www.w3.org/2000/svg">
<path d="M5.70835 0.845703C5.25969 0.845703 4.81772 1.00642 4.44942 1.30106L4.39585 1.32785L4.36906 1.35463L1.69049 4.11356L1.71728 4.14035C0.890267 4.90374 0.635802 6.04548 0.994062 7.0332C0.99741 7.0399 0.990714 7.05329 0.994062 7.05999C1.72062 9.13923 3.57888 13.1537 7.20835 16.7832C10.8512 20.4261 14.9193 22.2107 16.9316 22.9975H16.9583C17.9996 23.3457 19.128 23.0979 19.9316 22.4082L22.6369 19.7028C23.3467 18.993 23.3467 17.7609 22.6369 17.0511L19.1548 13.5689L19.128 13.5153C18.4182 12.8055 17.1592 12.8055 16.4494 13.5153L14.7351 15.2296C14.1157 14.9316 12.6392 14.1682 11.2262 12.8189C9.8233 11.4796 9.10678 9.93945 8.84228 9.33677L10.5566 7.62249C11.2764 6.90262 11.2898 5.70396 10.5298 4.99749L10.5566 4.9707L10.4762 4.89035L7.04763 1.35463L7.02085 1.32785L6.96728 1.30106C6.59897 1.00642 6.15701 0.845703 5.70835 0.845703ZM5.70835 2.55999C5.77196 2.55999 5.83558 2.59012 5.89585 2.64035L9.32442 6.14927L9.40478 6.22963C9.39808 6.22294 9.455 6.31334 9.3512 6.41713L7.20835 8.55999L6.80656 8.93499L6.99406 9.4707C6.99406 9.4707 7.97844 12.1057 10.0476 14.0778L10.2351 14.2386C12.2273 16.0566 14.5744 17.0511 14.5744 17.0511L15.1101 17.2921L17.6548 14.7475C17.8021 14.6002 17.7753 14.6002 17.9226 14.7475L21.4316 18.2564C21.5789 18.4037 21.5789 18.3502 21.4316 18.4975L18.8066 21.1225C18.4115 21.4607 17.9929 21.531 17.4941 21.3636C15.5521 20.6002 11.7787 18.9428 8.4137 15.5778C5.02196 12.1861 3.25076 8.33901 2.6012 6.4707C2.47062 6.12249 2.56437 5.60686 2.86906 5.3457L2.92263 5.29213L5.52085 2.64035C5.58112 2.59012 5.64473 2.55999 5.70835 2.55999Z" fill="currentColor"/>
</svg>
